<?xml version="1.0" standalone="no"?>
<svg viewBox="0 0 200 200" xmlns="http://www.w3.org/2000/svg">
  <path fill="#464342" d="M23.8,-50.6C28.6,-38.4,28.7,-27.5,39.8,-19.3C50.8,-11.1,72.9,-5.5,72.3,-0.3C71.7,4.8,48.4,9.7,38.2,19.3C27.9,28.9,30.6,43.4,26.4,55.8C22.3,68.1,11.1,78.5,3.1,73C-4.9,67.6,-9.7,46.5,-15.6,35C-21.4,23.6,-28.2,21.9,-40.6,17.7C-53.1,13.5,-71.1,6.7,-78.1,-4C-85.1,-14.8,-81.1,-29.6,-71.3,-38.6C-61.6,-47.5,-46.2,-50.5,-33.4,-58C-20.6,-65.5,-10.3,-77.6,-0.4,-76.9C9.5,-76.2,19,-62.7,23.8,-50.6Z" transform="translate(100 100)" />
</svg>
