<?xml version="1.0" standalone="no"?>
<svg viewBox="0 0 200 200" xmlns="http://www.w3.org/2000/svg">
  <path fill="#464342" d="M30.2,-53.8C43.2,-44.7,60.7,-44.9,70.8,-37.5C80.8,-30.1,83.6,-15,82.2,-0.8C80.8,13.4,75.3,26.9,66.3,36.1C57.2,45.2,44.5,50.1,32.8,58.9C21.2,67.7,10.6,80.3,-1.2,82.5C-13.1,84.6,-26.1,76.3,-39.5,68.5C-52.8,60.7,-66.4,53.4,-68.3,42.1C-70.2,30.8,-60.3,15.4,-57.1,1.8C-54,-11.7,-57.5,-23.5,-56.6,-36.6C-55.8,-49.8,-50.7,-64.4,-40.5,-75.1C-30.4,-85.9,-15.2,-92.8,-3.3,-87C8.6,-81.3,17.1,-62.9,30.2,-53.8Z" transform="translate(100 100)" />
</svg>
