<?xml version="1.0" standalone="no"?>
<svg viewBox="0 0 200 200" xmlns="http://www.w3.org/2000/svg">
  <path fill="#464342" d="M39.4,-68.8C50.8,-61.8,59.4,-50.5,66,-38.4C72.5,-26.2,77,-13.1,79.6,1.5C82.2,16.1,83,32.2,76.2,44.1C69.5,56,55.4,63.7,41.4,67.7C27.5,71.6,13.7,71.8,-1,73.6C-15.8,75.4,-31.5,78.7,-44.6,74.2C-57.7,69.7,-68.1,57.5,-72.4,43.9C-76.6,30.2,-74.8,15.1,-70.3,2.6C-65.9,-9.9,-58.7,-19.8,-54.4,-33.6C-50.2,-47.3,-48.9,-64.8,-40.3,-73.5C-31.7,-82.1,-15.9,-81.9,-0.9,-80.3C14.1,-78.8,28.1,-75.9,39.4,-68.8Z" transform="translate(100 100)" />
</svg>
