<?xml version="1.0" standalone="no"?>
<svg viewBox="0 0 200 200" xmlns="http://www.w3.org/2000/svg">
  <path fill="#464342" d="M36.3,-62.4C44.1,-58.3,45.4,-42.7,49.9,-30.3C54.5,-18,62.2,-9,61.6,-0.3C61.1,8.4,52.3,16.7,45.6,25.3C38.9,33.9,34.3,42.8,27.1,47.4C19.9,52.1,9.9,52.6,-1.9,55.9C-13.8,59.2,-27.5,65.4,-40.3,63.9C-53.1,62.4,-65,53.4,-70,41.5C-75.1,29.6,-73.3,14.8,-73.3,0C-73.2,-14.7,-74.8,-29.4,-70.8,-43.1C-66.8,-56.9,-57.2,-69.6,-44.4,-70.9C-31.7,-72.1,-15.9,-61.9,-0.8,-60.5C14.2,-59.1,28.5,-66.6,36.3,-62.4Z" transform="translate(100 100)" />
</svg>
