<svg width="1920" height="350" viewBox="0 0 1920 350" fill="none" xmlns="http://www.w3.org/2000/svg">
<g clip-path="url(#clip0_35_102)">
<path d="M0 105L13.8667 93.2969C27.8667 82.0312 56 57.9687 84 58.2969C111.333 57.9687 138.667 82.0312 166.667 87.5C194.8 92.9687 222.667 82.0312 250.667 110.797C278.267 140 306.667 210 333.333 233.297C361.733 257.031 389.333 232.969 417.333 186.703C445.2 140 473.333 70 501.333 35C528.667 -2.20537e-05 556 -2.20537e-05 584 40.7969C612.133 82.0312 640 162.969 668 210C695.6 257.031 724 267.969 750.667 250.797C779.067 232.969 806.667 187.031 834.667 192.5C862.667 197.969 890.667 257.031 918.667 262.5C946.133 267.969 973.333 222.031 1001.33 180.797C1029.6 140 1057.33 105 1085.33 81.7031C1113.07 57.9687 1141.33 47.0312 1169.33 64.2031C1196.53 82.0312 1224 127.969 1252 151.703C1280 175 1308 175 1336 175C1363.47 175 1390.67 175 1418.67 175C1446.93 175 1474.67 175 1502.67 175C1530.4 175 1558.67 175 1586.67 186.703C1613.87 197.969 1641.33 222.031 1669.33 221.703C1697.33 222.031 1725.33 197.969 1753.33 186.703C1780.93 175 1809.33 175 1836 175C1864.4 175 1892 175 1906.67 175H1920V350H1906.13C1892.13 350 1864 350 1836 350C1808.67 350 1781.33 350 1753.33 350C1725.2 350 1697.33 350 1669.33 350C1641.73 350 1613.33 350 1586.67 350C1558.27 350 1530.67 350 1502.67 350C1474.8 350 1446.67 350 1418.67 350C1391.33 350 1364 350 1336 350C1307.87 350 1280 350 1252 350C1224.4 350 1196 350 1169.33 350C1140.93 350 1113.33 350 1085.33 350C1057.33 350 1029.33 350 1001.33 350C973.867 350 946.667 350 918.667 350C890.4 350 862.667 350 834.667 350C806.933 350 778.667 350 750.667 350C723.467 350 696 350 668 350C640 350 612 350 584 350C556.533 350 529.333 350 501.333 350C473.067 350 445.333 350 417.333 350C389.6 350 361.333 350 333.333 350C306.133 350 278.667 350 250.667 350C222.667 350 194.667 350 166.667 350C139.067 350 110.667 350 84 350C55.6 350 28 350 13.3333 350H0V105Z" fill="#2B2425"/>
<g clip-path="url(#clip1_35_102)">
<path d="M0 127.966H11.0667C22.1333 127.966 44 127.966 66.6667 140.301C88.2667 152.636 110.667 177.307 132 181.393C154.533 185.787 176 168.826 198.667 181.393C220.667 193.497 242.667 235.128 265.333 230.734C286.933 226.648 309.333 177.307 330.667 177.307C353.067 177.307 374.667 226.648 397.333 238.983C419.333 251.318 441.333 226.648 464 218.398C485.467 210.458 508 218.167 529.333 234.897C551.733 251.318 573.333 275.989 596 267.739C617.867 259.799 640 218.167 662.667 206.063C684.133 193.497 706.667 210.458 728 222.562C750.4 235.128 772 242.838 794.667 255.404C816.533 267.508 838.667 284.469 861.333 263.653C882.8 242.838 905.333 185.787 926.667 152.636C948.933 119.485 970.667 111.776 993.333 132.052C1015.2 152.636 1037.33 201.977 1058.67 243.069C1081.33 284.469 1104 316.849 1125.33 308.908C1147.6 300.659 1169.33 251.318 1192 214.312C1213.73 177.307 1236 152.636 1257.33 164.971C1280 177.307 1302.67 226.648 1324 243.069C1346.27 259.799 1368 242.838 1390.67 251.318C1412.4 259.799 1434.67 292.179 1456 304.745C1478.67 316.849 1501.33 309.14 1522.67 304.745C1544.8 300.659 1566.67 300.659 1589.33 288.324C1611.07 275.989 1633.33 251.318 1654.67 234.897C1677.2 218.167 1698.67 210.458 1721.33 201.977C1743.47 193.497 1765.33 185.787 1788 173.221C1809.6 161.117 1832 144.156 1853.33 136.215C1875.87 127.966 1897.33 127.966 1909.33 127.966H1920V350H1908.93C1897.87 350 1876 350 1853.33 350C1831.73 350 1809.33 350 1788 350C1765.47 350 1744 350 1721.33 350C1699.33 350 1677.33 350 1654.67 350C1633.07 350 1610.67 350 1589.33 350C1566.93 350 1545.33 350 1522.67 350C1500.67 350 1478.67 350 1456 350C1434.53 350 1412 350 1390.67 350C1368.27 350 1346.67 350 1324 350C1302.13 350 1280 350 1257.33 350C1235.87 350 1213.33 350 1192 350C1169.6 350 1148 350 1125.33 350C1103.47 350 1081.33 350 1058.67 350C1037.2 350 1014.67 350 993.333 350C971.067 350 949.333 350 926.667 350C904.8 350 882.667 350 861.333 350C838.667 350 816 350 794.667 350C772.4 350 750.667 350 728 350C706.267 350 684 350 662.667 350C640 350 617.333 350 596 350C573.733 350 552 350 529.333 350C507.6 350 485.333 350 464 350C441.333 350 418.667 350 397.333 350C375.2 350 353.333 350 330.667 350C308.933 350 286.667 350 265.333 350C242.8 350 221.333 350 198.667 350C176.533 350 154.667 350 132 350C110.4 350 88 350 66.6667 350C44.1333 350 22.6667 350 10.6667 350H0V127.966Z" fill="#464342"/>
</g>
<g clip-path="url(#clip2_35_102)">
<path d="M0 340.673L11.8667 331.347C23.7333 322.02 48 303.367 70.6667 294.04C94.8 284.713 118.667 284.713 142.667 294.04C165.867 303.367 189.333 322.02 213.333 322.02C237.067 322.02 261.333 303.367 284 292.495C308.133 281.507 332 278.593 356 280.05C379.2 281.507 402.667 287.92 426.667 289.377C450.4 290.834 474.667 287.92 497.333 286.258C521.467 284.713 545.333 284.713 569.333 290.922C592.533 297.246 616 309.487 640 309.575C663.733 309.487 688 297.246 710.667 301.822C734.8 306.573 758.667 328.141 782.667 332.891C805.867 337.467 829.333 325.226 853.333 318.901C877.067 312.693 901.333 312.693 924 315.812C948.133 318.814 972 325.226 996 322.02C1019.2 318.814 1042.67 306.573 1066.67 300.248C1090.4 294.04 1114.67 294.04 1137.33 297.159C1161.47 300.161 1185.33 306.573 1209.33 301.822C1232.53 297.246 1256 281.507 1280 275.387C1303.73 269.266 1328 272.181 1350.67 272.268C1374.8 272.181 1398.67 269.266 1422.67 273.842C1445.87 278.593 1469.33 290.834 1493.33 290.922C1517.07 290.834 1541.33 278.593 1564 284.713C1588.13 290.834 1612 315.899 1636 329.802C1659.2 343.879 1682.67 346.794 1706.67 336.01C1730.4 325.226 1754.67 300.161 1777.33 298.703C1801.47 297.246 1825.33 318.814 1849.33 329.802C1872.53 340.673 1896 340.673 1908 340.673H1920V350H1908.13C1896.27 350 1872 350 1849.33 350C1825.2 350 1801.33 350 1777.33 350C1754.13 350 1730.67 350 1706.67 350C1682.93 350 1658.67 350 1636 350C1611.87 350 1588 350 1564 350C1540.8 350 1517.33 350 1493.33 350C1469.6 350 1445.33 350 1422.67 350C1398.53 350 1374.67 350 1350.67 350C1327.47 350 1304 350 1280 350C1256.27 350 1232 350 1209.33 350C1185.2 350 1161.33 350 1137.33 350C1114.13 350 1090.67 350 1066.67 350C1042.93 350 1018.67 350 996 350C971.867 350 948 350 924 350C900.8 350 877.333 350 853.333 350C829.6 350 805.333 350 782.667 350C758.533 350 734.667 350 710.667 350C687.467 350 664 350 640 350C616.267 350 592 350 569.333 350C545.2 350 521.333 350 497.333 350C474.133 350 450.667 350 426.667 350C402.933 350 378.667 350 356 350C331.867 350 308 350 284 350C260.8 350 237.333 350 213.333 350C189.6 350 165.333 350 142.667 350C118.533 350 94.6667 350 70.6667 350C47.4667 350 24 350 12 350H0V340.673Z" fill="#716A65"/>
</g>
</g>
<defs>
<clipPath id="clip0_35_102">
<rect width="1920" height="350" fill="white"/>
</clipPath>
<clipPath id="clip1_35_102">
<rect width="1920" height="246.705" fill="white" transform="translate(0 103.295)"/>
</clipPath>
<clipPath id="clip2_35_102">
<rect width="1920" height="93.2665" fill="white" transform="translate(0 256.734)"/>
</clipPath>
</defs>
</svg>
