<?xml version="1.0" standalone="no"?><svg xmlns="http://www.w3.org/2000/svg" viewBox="0 0 1440 320"><path fill="#0099ff" fill-opacity="1" d="M0,288L8.9,256C17.8,224,36,160,53,128C71.1,96,89,96,107,128C124.4,160,142,224,160,224C177.8,224,196,160,213,122.7C231.1,85,249,75,267,80C284.4,85,302,107,320,112C337.8,117,356,107,373,101.3C391.1,96,409,96,427,117.3C444.4,139,462,181,480,181.3C497.8,181,516,139,533,154.7C551.1,171,569,245,587,261.3C604.4,277,622,235,640,213.3C657.8,192,676,192,693,202.7C711.1,213,729,235,747,224C764.4,213,782,171,800,149.3C817.8,128,836,128,853,138.7C871.1,149,889,171,907,154.7C924.4,139,942,85,960,64C977.8,43,996,53,1013,53.3C1031.1,53,1049,43,1067,58.7C1084.4,75,1102,117,1120,117.3C1137.8,117,1156,75,1173,96C1191.1,117,1209,203,1227,250.7C1244.4,299,1262,309,1280,272C1297.8,235,1316,149,1333,144C1351.1,139,1369,213,1387,250.7C1404.4,288,1422,288,1431,288L1440,288L1440,320L1431.1,320C1422.2,320,1404,320,1387,320C1368.9,320,1351,320,1333,320C1315.6,320,1298,320,1280,320C1262.2,320,1244,320,1227,320C1208.9,320,1191,320,1173,320C1155.6,320,1138,320,1120,320C1102.2,320,1084,320,1067,320C1048.9,320,1031,320,1013,320C995.6,320,978,320,960,320C942.2,320,924,320,907,320C888.9,320,871,320,853,320C835.6,320,818,320,800,320C782.2,320,764,320,747,320C728.9,320,711,320,693,320C675.6,320,658,320,640,320C622.2,320,604,320,587,320C568.9,320,551,320,533,320C515.6,320,498,320,480,320C462.2,320,444,320,427,320C408.9,320,391,320,373,320C355.6,320,338,320,320,320C302.2,320,284,320,267,320C248.9,320,231,320,213,320C195.6,320,178,320,160,320C142.2,320,124,320,107,320C88.9,320,71,320,53,320C35.6,320,18,320,9,320L0,320Z"></path></svg>