<?xml version="1.0" standalone="no"?><svg xmlns="http://www.w3.org/2000/svg" viewBox="0 0 1440 320"><path fill="#0099ff" fill-opacity="1" d="M0,96L10.4,85.3C20.9,75,42,53,63,53.3C83.5,53,104,75,125,80C146.1,85,167,75,188,101.3C208.7,128,230,192,250,213.3C271.3,235,292,213,313,170.7C333.9,128,355,64,376,32C396.5,0,417,0,438,37.3C459.1,75,480,149,501,192C521.7,235,543,245,563,229.3C584.3,213,605,171,626,176C647,181,668,235,689,240C709.6,245,730,203,751,165.3C772.2,128,793,96,814,74.7C834.8,53,856,43,877,58.7C897.4,75,918,117,939,138.7C960,160,981,160,1002,160C1022.6,160,1043,160,1064,160C1085.2,160,1106,160,1127,160C1147.8,160,1169,160,1190,170.7C1210.4,181,1231,203,1252,202.7C1273,203,1294,181,1315,170.7C1335.7,160,1357,160,1377,160C1398.3,160,1419,160,1430,160L1440,160L1440,320L1429.6,320C1419.1,320,1398,320,1377,320C1356.5,320,1336,320,1315,320C1293.9,320,1273,320,1252,320C1231.3,320,1210,320,1190,320C1168.7,320,1148,320,1127,320C1106.1,320,1085,320,1064,320C1043.5,320,1023,320,1002,320C980.9,320,960,320,939,320C918.3,320,897,320,877,320C855.7,320,835,320,814,320C793,320,772,320,751,320C730.4,320,710,320,689,320C667.8,320,647,320,626,320C605.2,320,584,320,563,320C542.6,320,522,320,501,320C480,320,459,320,438,320C417.4,320,397,320,376,320C354.8,320,334,320,313,320C292.2,320,271,320,250,320C229.6,320,209,320,188,320C167,320,146,320,125,320C104.3,320,83,320,63,320C41.7,320,21,320,10,320L0,320Z"></path></svg>